<svg width="24" height="24" viewBox="0 0 24 24" fill="none" xmlns="http://www.w3.org/2000/svg">
<path d="M22 12C22 6.47713 17.5229 2 12 2C6.47713 2 2 6.47713 2 12C2 17.5229 6.47713 22 12 22H22V20.3333H17.5208C20.3167 18.4823 21.9988 15.3533 22 12ZM16.8983 18.7419C15.7813 19.5533 14.2176 19.3059 13.4062 18.1886C12.5949 17.0716 12.8423 15.5083 13.9592 14.6965C15.0766 13.8852 16.6399 14.1326 17.4513 15.2499C18.263 16.3669 18.0152 17.9302 16.8983 18.7419ZM16.7754 7.81991C18.0885 7.39307 19.4988 8.11165 19.9256 9.42472C20.3521 10.7382 19.6335 12.1485 18.3204 12.575C17.0073 13.0018 15.597 12.2832 15.1702 10.9701C14.7437 9.65706 15.4623 8.24634 16.7754 7.81991ZM12 3.66667C13.3806 3.66667 14.5 4.78605 14.5 6.16667C14.5 7.54728 13.3806 8.66667 12 8.66667C10.6194 8.66667 9.5 7.54728 9.5 6.16667C9.5 4.78605 10.6194 3.66667 12 3.66667ZM4.07438 9.42472C4.50122 8.11165 5.91154 7.39307 7.22461 7.8195C8.53768 8.24634 9.25627 9.65666 8.82983 10.9697C8.40299 12.2828 6.99268 13.0014 5.67961 12.575C4.36654 12.1485 3.64795 10.7382 4.07438 9.42472ZM10.5938 18.1886C9.78239 19.3059 8.21867 19.5533 7.10173 18.7419C5.98478 17.9302 5.73698 16.3669 6.54875 15.2499C7.36011 14.133 8.92383 13.8852 10.0408 14.6969C11.1577 15.5083 11.4051 17.0716 10.5938 18.1886ZM11.1667 12C11.1667 11.5398 11.5398 11.1667 12 11.1667C12.4602 11.1667 12.8333 11.5398 12.8333 12C12.8333 12.4602 12.4602 12.8333 12 12.8333C11.5398 12.8333 11.1667 12.4602 11.1667 12Z" fill="#0068FF"/>
</svg>
