<svg width="24" height="24" viewBox="0 0 24 24" fill="none" xmlns="http://www.w3.org/2000/svg">
<path fill-rule="evenodd" clip-rule="evenodd" d="M17.5294 4.24073C17.3927 3.69376 16.831 3.36791 16.2883 3.52068L11.0332 4.99998H17.7192L17.5294 4.24073ZM15.7464 1.5955C17.3745 1.13719 19.0595 2.11474 19.4697 3.75566L19.7808 4.99998H20C21.6569 4.99998 23 6.34313 23 7.99998V11.75L22 11.75C21.2971 11.75 20.7273 12.3198 20.7273 13.0227C20.7273 13.7256 21.2971 14.2954 22 14.2954L23 14.2954V18C23 19.6568 21.6569 21 20 21H4C2.34315 21 1 19.6568 1 18V14.2954H2C2.70291 14.2954 3.27275 13.7256 3.27275 13.0227C3.27275 12.3198 2.70293 11.75 2.00002 11.75H1V7.99998C1 6.50674 2.09098 5.2683 3.51935 5.03828L3.51923 5.03739L15.7464 1.5955ZM12.4867 9.30787L13.3174 11.0699C13.4438 11.3351 13.6966 11.5167 13.9855 11.5494L15.4483 11.7056C15.99 11.7638 16.1959 12.4504 15.7769 12.7992L14.6356 13.7474C14.39 13.9508 14.2817 14.2741 14.3503 14.583L14.7187 16.2432C14.8379 16.7773 14.26 17.1914 13.7977 16.9081L12.2483 15.9599C12.0966 15.869 11.9088 15.869 11.7607 15.9599L10.2113 16.9081C9.74542 17.1914 9.17116 16.7773 9.29035 16.2432L9.65874 14.5866C9.72736 14.2778 9.61901 13.9544 9.37341 13.751L8.23213 12.8028C7.80234 12.4504 8.00459 11.7601 8.54995 11.702L10.0091 11.5458C10.3016 11.5167 10.5544 11.3351 10.6808 11.0699L11.5115 9.30787C11.7029 8.89735 12.2916 8.89735 12.4867 9.30787ZM3 7.99998C3 7.4477 3.44772 6.99998 4 6.99998H20C20.5523 6.99998 21 7.4477 21 7.99998V9.90559C19.6816 10.3282 18.7273 11.564 18.7273 13.0227C18.7273 14.4814 19.6816 15.7172 21 16.1398V18C21 18.5523 20.5523 19 20 19H4C3.44772 19 3 18.5523 3 18V16.1399C4.31839 15.7173 5.27275 14.4814 5.27275 13.0227C5.27275 11.564 4.31839 10.3282 3 9.90557V7.99998Z" fill="#99A5B2"/>
</svg>
