<svg width="24" height="24" viewBox="0 0 24 24" fill="none" xmlns="http://www.w3.org/2000/svg">
<path fill-rule="evenodd" clip-rule="evenodd" d="M14.0863 2.62654C12.9232 1.50144 11.0775 1.50144 9.91448 2.62654L9.53561 2.99307C9.31392 3.20753 9.00567 3.30769 8.70026 3.26449L8.1783 3.19066C6.57608 2.96404 5.08285 4.04894 4.80327 5.64277L4.71219 6.16199C4.6589 6.4658 4.46839 6.72802 4.19592 6.87258L3.73025 7.11965C2.30082 7.87807 1.73046 9.63347 2.4411 11.0872L2.67261 11.5608C2.80807 11.8379 2.80807 12.1621 2.67261 12.4392L2.4411 12.9128C1.73046 14.3665 2.30082 16.1219 3.73025 16.8804L4.19592 17.1274C4.46839 17.272 4.6589 17.5342 4.71219 17.838L4.80327 18.3572C5.08285 19.9511 6.57609 21.036 8.1783 20.8094L8.70026 20.7355C9.00567 20.6923 9.31392 20.7925 9.53561 21.0069L9.91449 21.3735C11.0775 22.4986 12.9232 22.4986 14.0863 21.3735L14.4651 21.0069C14.6868 20.7925 14.9951 20.6923 15.3005 20.7355L15.8224 20.8094C17.4247 21.036 18.9179 19.9511 19.1975 18.3572L19.2886 17.838C19.3418 17.5342 19.5324 17.272 19.8048 17.1274L20.2705 16.8804C21.6999 16.1219 22.2703 14.3665 21.5596 12.9128L21.3281 12.4392C21.1927 12.1621 21.1927 11.8379 21.3281 11.5608L21.5596 11.0872C22.2703 9.63347 21.6999 7.87807 20.2705 7.11965L19.8048 6.87258C19.5324 6.72802 19.3418 6.4658 19.2886 6.16199L19.1975 5.64277C18.9179 4.04894 17.4247 2.96404 15.8224 3.19066L15.3005 3.26449C14.9951 3.30769 14.6868 3.20753 14.4651 2.99307L14.0863 2.62654ZM11.3051 4.06399C11.6927 3.68896 12.308 3.68896 12.6957 4.06399L13.0745 4.43052C13.7396 5.0739 14.6644 5.37437 15.5806 5.24478L16.1025 5.17095C16.6366 5.09541 17.1344 5.45704 17.2275 5.98832L17.3186 6.50754C17.4785 7.41897 18.05 8.20561 18.8674 8.63931L19.3331 8.88638C19.8096 9.13918 19.9997 9.72432 19.7628 10.2089L19.5313 10.6825C19.1249 11.5138 19.1249 12.4862 19.5313 13.3175L19.7628 13.7911C19.9997 14.2757 19.8096 14.8608 19.3331 15.1136L18.8674 15.3607C18.05 15.7944 17.4785 16.581 17.3186 17.4925L17.2275 18.0117C17.1344 18.543 16.6366 18.9046 16.1025 18.8291L15.5806 18.7552C14.6644 18.6256 13.7396 18.9261 13.0745 19.5695L12.6957 19.936C12.308 20.3111 11.6927 20.3111 11.3051 19.936L10.9262 19.5695C10.2611 18.9261 9.33638 18.6256 8.42016 18.7552L7.8982 18.8291C7.36413 18.9046 6.86639 18.543 6.77319 18.0117L6.68211 17.4925C6.52224 16.581 5.95071 15.7944 5.1333 15.3607L4.66763 15.1136C4.19115 14.8608 4.00103 14.2757 4.23791 13.7911L4.46942 13.3175C4.8758 12.4862 4.8758 11.5138 4.46942 10.6825L4.23791 10.2089C4.00103 9.72432 4.19115 9.13918 4.66763 8.88638L5.1333 8.63931C5.95071 8.20561 6.52224 7.41897 6.68211 6.50755L6.77319 5.98832C6.86639 5.45704 7.36413 5.09541 7.8982 5.17095L8.42016 5.24478C9.33638 5.37437 10.2611 5.0739 10.9262 4.43052L11.3051 4.06399ZM9.00037 10C9.8288 10 10.5004 9.32843 10.5004 8.50001C10.5004 7.67158 9.8288 7.00001 9.00037 7.00001C8.17194 7.00001 7.50037 7.67158 7.50037 8.50001C7.50037 9.32843 8.17194 10 9.00037 10ZM7.79326 14.8787C7.40274 15.2692 7.40274 15.9024 7.79326 16.2929C8.18379 16.6834 8.81695 16.6834 9.20748 16.2929L16.2785 9.22183C16.6691 8.83131 16.6691 8.19814 16.2785 7.80762C15.888 7.41709 15.2549 7.41709 14.8643 7.80762L7.79326 14.8787ZM16.5004 15.5C16.5004 16.3284 15.8288 17 15.0004 17C14.1719 17 13.5004 16.3284 13.5004 15.5C13.5004 14.6716 14.1719 14 15.0004 14C15.8288 14 16.5004 14.6716 16.5004 15.5Z" fill="#99A5B2"/>
</svg>
