<svg width="24" height="24" viewBox="0 0 24 24" fill="none" xmlns="http://www.w3.org/2000/svg">
<path fill-rule="evenodd" clip-rule="evenodd" d="M12 20C16.4183 20 20 16.4183 20 12C20 7.58172 16.4183 4 12 4C7.58172 4 4 7.58172 4 12C4 16.4183 7.58172 20 12 20ZM12 22C17.5228 22 22 17.5228 22 12C22 6.47715 17.5228 2 12 2C6.47715 2 2 6.47715 2 12C2 17.5228 6.47715 22 12 22ZM13.3174 10.0699L12.4867 8.30789C12.2916 7.89737 11.7029 7.89737 11.5115 8.30789L10.6808 10.0699C10.5544 10.3351 10.3016 10.5167 10.0091 10.5458L8.54995 10.702C8.00459 10.7602 7.80234 11.4504 8.23213 11.8028L9.37341 12.751C9.61901 12.9545 9.72736 13.2778 9.65874 13.5866L9.29035 15.2432C9.17116 15.7773 9.74542 16.1915 10.2113 15.9081L11.7607 14.9599C11.9088 14.869 12.0966 14.869 12.2483 14.9599L13.7977 15.9081C14.26 16.1915 14.8379 15.7773 14.7187 15.2432L14.3503 13.583C14.2817 13.2742 14.39 12.9508 14.6356 12.7474L15.7769 11.7992C16.1959 11.4504 15.99 10.7638 15.4483 10.7057L13.9855 10.5494C13.6966 10.5167 13.4438 10.3351 13.3174 10.0699Z" fill="#99A5B2"/>
</svg>
