<svg width="13" height="12" viewBox="0 0 13 12" fill="none" xmlns="http://www.w3.org/2000/svg">
<path fill-rule="evenodd" clip-rule="evenodd" d="M6.75 12C10.0637 12 12.75 9.31372 12.75 6.00001C12.75 2.6863 10.0637 7.62939e-06 6.75 7.62939e-06C3.43629 7.62939e-06 0.75 2.6863 0.75 6.00001C0.75 9.31372 3.43629 12 6.75 12ZM7.8 2.49998C7.8 2.08577 7.46421 1.74998 7.05 1.74998C6.63579 1.74998 6.3 2.08577 6.3 2.49998V5.68935L4.51969 7.46965C4.2268 7.76255 4.2268 8.23742 4.51969 8.53031C4.81259 8.82321 5.28746 8.82321 5.58035 8.53031L7.58033 6.53034C7.72098 6.38969 7.8 6.19892 7.8 6.00001V2.49998Z" fill="#55B3F3"/>
</svg>
